<?xml version="1.0" standalone="no"?>
<!DOCTYPE svg PUBLIC "-//W3C//DTD SVG 20010904//EN"
 "http://www.w3.org/TR/2001/REC-SVG-20010904/DTD/svg10.dtd">
<svg version="1.0" xmlns="http://www.w3.org/2000/svg"
 width="367.000000pt" height="367.000000pt" viewBox="0 0 367.000000 367.000000"
 preserveAspectRatio="xMidYMid meet">
<metadata>
Created by potrace 1.11, written by Peter Selinger 2001-2013
</metadata>
<g transform="translate(0.000000,367.000000) scale(0.100000,-0.100000)"
fill="#000000" stroke="none">
<path d="M3318 3655 c-3 -3 -14 -7 -24 -9 -11 -2 -39 -11 -64 -20 -25 -9 -52
-19 -60 -21 -8 -2 -31 -10 -50 -18 -40 -16 -74 -28 -77 -28 -2 0 -41 -19 -88
-44 -47 -24 -85 -42 -85 -39 0 3 -13 -4 -29 -15 -16 -12 -33 -21 -39 -21 -5 0
-15 -7 -22 -15 -7 -9 -15 -13 -18 -11 -2 3 -24 -8 -47 -24 -23 -16 -45 -26
-48 -23 -4 3 -9 -2 -13 -11 -3 -9 -12 -16 -18 -16 -7 0 -30 -13 -52 -30 -21
-16 -44 -30 -50 -30 -7 0 -14 -7 -18 -15 -3 -8 -10 -15 -16 -15 -32 0 -428
-339 -422 -361 1 -6 -2 -8 -7 -5 -12 8 -33 -18 -23 -29 4 -5 2 -6 -4 -2 -5 3
-18 -5 -28 -19 -10 -13 -30 -37 -45 -52 -25 -28 -52 -61 -173 -211 -28 -35
-45 -61 -37 -56 8 4 5 -3 -7 -16 -38 -45 -150 -226 -147 -239 1 -3 -10 -20
-25 -39 -14 -19 -19 -30 -11 -26 7 5 4 -4 -9 -19 -12 -16 -22 -33 -22 -37 0
-5 -10 -30 -23 -57 -12 -26 -29 -67 -37 -92 -7 -25 -17 -50 -22 -56 -5 -7 -11
-20 -13 -30 -2 -11 -16 -62 -30 -114 -14 -52 -27 -112 -30 -132 -3 -20 -8 -54
-12 -75 -9 -45 -9 -255 0 -298 4 -16 14 -55 23 -85 9 -30 17 -62 18 -70 9 -63
166 -280 202 -280 9 0 12 -5 8 -12 -4 -7 -3 -10 1 -5 5 4 20 -3 34 -15 19 -18
18 -14 -8 20 -18 23 -30 42 -26 42 3 0 -2 12 -13 27 -25 37 -41 78 -44 111 -1
6 -4 12 -8 12 -3 0 -7 12 -7 28 -1 15 -6 45 -12 67 -16 61 -5 284 15 317 5 7
3 8 -6 3 -9 -5 -11 -4 -6 3 8 13 15 40 21 85 2 15 7 32 10 37 6 9 9 22 21 78
2 12 15 47 29 77 13 31 24 58 24 60 0 3 9 26 21 51 11 26 20 50 20 54 0 4 8
18 19 31 10 13 20 29 21 34 6 24 25 61 39 79 13 16 14 18 1 11 -8 -5 3 13 25
40 22 27 33 45 25 40 -8 -5 -5 4 8 20 44 57 87 120 87 130 1 6 7 8 15 7 8 -2
12 -1 8 3 -8 8 47 82 115 154 29 30 46 51 38 46 -10 -5 -12 -4 -7 3 4 7 14 12
22 12 8 0 13 4 12 8 -2 4 37 46 87 93 49 46 107 101 127 122 21 21 38 34 38
30 0 -4 4 -3 8 2 12 17 222 180 232 180 8 1 61 36 105 70 21 16 36 23 31 15
-4 -8 -1 -7 7 3 9 10 17 18 19 17 1 -1 19 7 38 18 19 12 37 21 40 20 3 -1 32
16 65 37 33 22 61 38 62 37 2 0 28 10 58 23 31 14 60 25 65 25 14 0 44 -107
53 -190 2 -19 7 -55 11 -80 6 -36 15 -147 17 -205 0 -25 -11 -184 -17 -220 -3
-22 -8 -56 -10 -75 -3 -19 -7 -46 -10 -60 -3 -14 -7 -38 -9 -55 -8 -52 -15
-78 -50 -200 -14 -49 -27 -94 -28 -100 -2 -5 -9 -21 -16 -34 -9 -17 -10 -21
-1 -16 7 4 4 -4 -5 -19 -10 -14 -14 -26 -11 -26 4 0 -1 -11 -10 -25 -9 -14
-13 -25 -10 -25 4 0 -1 -11 -10 -25 -9 -14 -13 -25 -9 -25 3 0 -2 -12 -13 -27
-11 -16 -20 -31 -21 -36 0 -4 -15 -37 -32 -75 -18 -37 -33 -73 -35 -81 -1 -7
-13 -24 -25 -37 -12 -13 -19 -24 -15 -24 4 0 -7 -18 -24 -40 -17 -22 -29 -40
-25 -40 4 0 1 -7 -6 -16 -7 -9 -18 -24 -24 -34 -5 -10 -28 -45 -50 -77 -22
-32 -39 -61 -37 -66 1 -4 -2 -6 -7 -5 -5 2 -9 -1 -9 -6 0 -5 -4 -12 -9 -15
-20 -16 -96 -104 -78 -91 20 14 20 14 1 -7 -10 -13 -24 -20 -30 -16 -6 3 -8 2
-3 -2 4 -5 -20 -35 -53 -67 -33 -32 -60 -64 -60 -70 0 -6 -3 -8 -7 -5 -3 4
-21 -8 -39 -27 -18 -19 -35 -31 -38 -28 -3 3 -6 -3 -6 -13 0 -10 -3 -16 -6
-12 -3 3 -31 -15 -62 -40 -32 -26 -72 -55 -89 -66 -36 -21 -46 -35 -13 -17 11
6 20 8 20 5 0 -3 25 10 56 30 31 20 52 30 48 24 -4 -7 14 2 39 20 26 18 47 28
47 24 0 -4 7 1 15 11 8 11 15 16 15 12 0 -4 21 8 48 27 26 18 55 37 65 40 9 4
17 11 17 17 0 5 5 10 11 10 6 0 48 30 93 67 122 101 126 105 119 116 -3 6 -1
7 4 4 6 -4 30 16 54 43 24 27 50 50 57 50 7 0 11 4 8 8 -3 5 15 28 39 52 24
24 41 48 38 53 -3 6 -1 7 6 3 6 -4 14 0 18 11 3 10 20 35 37 55 73 89 90 111
76 103 -8 -5 5 15 30 45 25 30 38 50 30 45 -8 -4 -5 3 8 17 12 13 22 29 22 35
0 6 10 23 22 39 13 15 16 24 8 19 -8 -5 0 10 18 33 19 23 31 42 28 42 -3 0 7
24 22 53 14 28 27 54 28 57 0 3 6 19 13 35 7 17 14 35 15 40 1 6 8 20 14 33 7
12 10 22 7 22 -3 0 2 11 11 24 8 14 15 29 15 33 0 4 7 33 16 63 9 30 18 60 19
65 2 6 5 20 8 33 3 12 8 30 11 40 11 40 24 99 30 132 7 35 8 48 22 175 14 130
7 471 -12 535 -2 8 -7 29 -10 45 -4 17 -8 39 -11 50 -2 11 -6 31 -8 45 -2 14
-14 57 -26 95 -12 39 -23 78 -25 87 -2 9 -9 27 -16 40 -7 13 -11 24 -10 26 1
1 -5 23 -15 47 -15 41 -31 54 -46 40z"/>
<path d="M156 3142 c-7 -11 -47 -114 -52 -132 -2 -8 -13 -46 -24 -85 -12 -38
-23 -79 -24 -91 -2 -11 -6 -25 -9 -31 -5 -8 -9 -33 -24 -153 -8 -67 -8 -297 1
-360 6 -45 25 -134 51 -242 2 -9 9 -26 15 -37 6 -12 8 -21 5 -21 -3 0 1 -13
10 -30 9 -16 14 -30 11 -30 -2 0 12 -33 32 -72 19 -40 35 -76 34 -80 -1 -5 3
-8 8 -8 6 0 10 -5 10 -10 0 -6 12 -29 27 -53 15 -23 27 -46 28 -50 0 -4 7 -12
15 -17 8 -5 11 -10 7 -10 -25 0 267 -329 333 -375 31 -21 106 -80 134 -105 16
-14 25 -18 20 -10 -4 8 9 0 31 -18 22 -17 45 -32 51 -32 6 0 17 -7 24 -15 7
-8 16 -13 20 -10 4 3 13 -2 19 -9 12 -14 106 -62 106 -55 0 2 14 -5 30 -17 24
-17 144 -67 165 -69 3 0 16 -7 29 -14 19 -10 22 -11 15 0 -4 7 6 3 23 -9 17
-12 32 -19 35 -17 3 3 30 -3 62 -14 31 -10 59 -15 62 -10 3 5 0 9 -6 9 -7 0
-26 10 -43 22 -18 13 -34 23 -37 23 -3 0 -19 9 -35 20 -48 32 -69 45 -85 52
-8 3 -31 19 -51 35 -20 15 -41 28 -46 28 -6 0 -18 9 -28 20 -10 11 -22 20 -26
20 -17 0 -189 136 -280 223 -28 26 -55 47 -60 47 -5 0 -8 3 -7 8 2 4 -30 41
-70 82 -39 41 -72 80 -72 87 0 7 -4 13 -9 13 -10 0 -87 122 -83 133 1 5 -2 6
-7 3 -5 -4 -13 4 -17 16 -4 13 -17 39 -29 58 -12 19 -23 38 -23 43 -1 4 -9 21
-17 37 -8 16 -15 31 -14 32 0 2 -5 17 -12 33 -7 17 -13 35 -14 40 -1 6 -7 27
-14 48 -7 21 -15 49 -17 63 -2 13 -6 36 -9 52 -20 102 -26 318 -12 422 4 30 9
69 11 85 3 17 7 39 9 50 3 11 10 48 17 82 12 58 14 63 36 59 13 -3 29 -8 36
-13 7 -4 15 -8 18 -9 33 -6 252 -108 290 -134 14 -10 28 -18 33 -19 13 -1 72
-33 89 -49 10 -8 18 -12 18 -8 0 4 19 -7 42 -26 23 -18 38 -26 33 -18 -5 9 0
8 13 -4 12 -11 31 -24 41 -30 39 -22 136 -90 143 -100 4 -6 8 -8 8 -3 0 4 26
-14 58 -39 31 -26 77 -63 102 -83 25 -20 75 -64 111 -99 67 -63 72 -65 84 -22
0 3 18 38 38 77 21 40 37 76 38 80 0 5 7 16 16 25 13 15 13 19 -1 40 -9 12
-16 19 -16 14 0 -5 -7 -3 -15 4 -8 7 -12 16 -9 21 3 5 0 8 -8 7 -7 -2 -12 3
-10 10 1 8 -1 11 -6 8 -4 -2 -32 20 -62 50 -30 30 -60 54 -67 54 -7 0 -13 4
-13 8 0 8 -122 103 -162 127 -9 6 -44 29 -78 53 -34 23 -64 42 -67 42 -2 0
-19 11 -37 25 -18 14 -38 25 -43 25 -6 0 -16 7 -23 15 -7 9 -15 13 -18 11 -2
-3 -20 6 -38 21 -19 14 -34 22 -34 19 0 -4 -12 1 -27 11 -24 16 -77 44 -93 48
-3 1 -23 10 -45 20 -22 10 -42 19 -45 20 -3 0 -25 11 -50 22 -56 26 -82 36
-95 38 -5 1 -32 12 -58 23 -27 12 -54 22 -61 22 -7 0 -16 3 -20 7 -3 4 -12 8
-19 9 -32 7 -56 14 -97 29 -54 19 -117 28 -124 17z"/>
<path d="M2983 2978 c-1 -24 -4 -66 -8 -93 -4 -28 -9 -77 -10 -110 -2 -33 -7
-71 -10 -85 -3 -14 -7 -38 -9 -55 -2 -16 -6 -39 -9 -50 -4 -11 -9 -37 -11 -57
-3 -21 -10 -47 -17 -59 -9 -17 -8 -20 2 -14 8 5 10 4 5 -3 -4 -7 -9 -21 -12
-32 -6 -27 -15 -63 -18 -75 -2 -5 -7 -25 -11 -43 -4 -18 -11 -35 -16 -38 -4
-2 -6 -11 -3 -18 3 -8 0 -17 -5 -21 -6 -3 -9 -11 -5 -16 3 -5 0 -16 -6 -24 -7
-8 -10 -15 -7 -15 4 0 -2 -20 -13 -45 -11 -25 -17 -45 -15 -45 2 0 -9 -31 -25
-70 -16 -38 -27 -70 -24 -70 3 0 -5 -14 -17 -32 -13 -17 -17 -28 -9 -23 8 5 3
-7 -10 -25 -13 -18 -17 -30 -9 -25 9 6 8 2 -3 -11 -10 -11 -24 -40 -33 -64 -9
-24 -23 -52 -32 -62 -9 -10 -13 -18 -9 -18 4 0 -2 -13 -14 -30 -12 -16 -18
-30 -14 -30 3 0 -5 -15 -19 -34 -15 -18 -24 -36 -21 -38 2 -3 -2 -11 -11 -18
-8 -7 -15 -17 -15 -23 0 -5 -11 -25 -26 -44 -14 -18 -22 -33 -19 -33 4 0 -7
-18 -24 -39 -17 -21 -31 -42 -31 -47 0 -4 -12 -21 -27 -37 -16 -17 -22 -27
-15 -23 7 5 -17 -31 -55 -79 -37 -47 -85 -108 -105 -135 -21 -27 -76 -89 -123
-138 -47 -49 -85 -93 -85 -96 0 -15 171 124 258 209 51 50 95 90 97 88 3 -2 3
0 0 4 -3 3 12 25 33 48 78 89 172 217 172 234 0 5 9 16 20 26 11 10 22 27 26
39 3 11 16 32 28 45 11 13 14 20 6 15 -8 -4 1 12 20 36 19 24 29 40 21 35 -8
-4 -3 7 11 26 15 19 27 37 27 41 1 5 15 38 33 75 17 38 32 70 33 73 0 3 7 16
15 30 7 14 13 26 12 28 -1 1 5 19 14 40 9 20 17 42 18 47 4 13 15 44 26 70 9
20 20 56 20 65 0 3 11 35 24 72 13 37 19 65 15 62 -5 -2 -1 12 7 32 8 20 13
39 10 41 -3 3 -1 13 4 23 5 9 11 35 14 58 3 23 7 45 9 50 18 30 28 392 12 464
-3 16 -7 39 -9 52 -2 13 -8 32 -13 41 -7 12 -10 5 -10 -27z"/>
<path d="M419 2629 c-2 -38 -10 -105 -14 -117 -3 -8 0 -10 6 -6 8 4 8 1 2 -12
-17 -35 -6 -243 17 -341 12 -51 21 -95 21 -98 0 -2 6 -23 15 -46 8 -23 12 -44
9 -47 -2 -3 3 -11 13 -19 9 -8 11 -12 4 -8 -6 3 -3 -10 9 -29 12 -20 18 -36
15 -36 -3 0 5 -18 20 -41 14 -23 21 -38 15 -34 -13 7 43 -79 73 -114 12 -13
14 -20 7 -16 -20 11 67 -103 145 -190 86 -97 178 -193 169 -175 -6 10 -1 9 13
-4 12 -10 19 -23 16 -28 -3 -4 -1 -7 4 -6 5 2 30 -16 56 -40 25 -24 46 -39 46
-33 0 5 -6 16 -13 23 -25 27 -143 165 -167 196 -14 19 -37 47 -52 65 -14 17
-24 35 -22 39 3 5 -2 11 -10 14 -9 3 -16 12 -16 19 0 6 -9 22 -20 35 -10 12
-25 35 -32 51 -7 16 -17 29 -21 29 -5 0 -6 4 -2 9 3 5 1 13 -5 16 -9 5 -71
126 -76 145 0 3 -7 19 -14 35 -7 17 -13 33 -12 38 1 4 -2 7 -8 7 -6 0 -9 3 -8
8 1 4 -5 21 -12 37 -7 17 -14 35 -16 40 -1 6 -12 34 -23 63 -11 29 -19 54 -19
55 0 1 -6 22 -13 47 -7 25 -14 52 -15 62 0 9 -5 25 -9 35 -4 10 -9 25 -10 33
-3 14 -13 75 -19 110 -1 8 -6 29 -9 45 -8 36 -14 72 -23 140 -6 50 -13 71 -15
44z"/>
<path d="M1805 2033 c-10 -21 -28 -50 -38 -65 -10 -16 -15 -28 -12 -28 3 0 -2
-12 -13 -27 -11 -16 -20 -30 -20 -33 -1 -3 -4 -13 -7 -22 -4 -10 4 -33 22 -60
38 -57 68 -120 72 -149 0 -5 6 -7 13 -3 7 4 8 3 4 -5 -4 -6 -2 -18 4 -26 7 -8
9 -15 6 -15 -4 0 -2 -9 4 -21 6 -11 13 -28 15 -37 2 -9 10 -46 19 -81 19 -80
16 -197 -8 -317 -8 -40 -34 -90 -67 -127 -39 -44 -88 -56 -128 -30 -18 12 -22
12 -16 2 4 -8 -7 2 -24 21 -17 19 -31 41 -31 48 0 6 -4 12 -8 12 -12 0 -8 -30
6 -57 7 -12 12 -28 12 -35 0 -22 67 -115 101 -139 38 -27 100 -30 145 -6 49
25 123 107 152 167 15 30 27 57 27 60 0 3 6 15 13 28 7 12 10 22 8 22 -3 0 -1
12 5 27 34 91 27 330 -16 478 -14 50 -28 97 -30 105 -8 29 -31 85 -43 108 -7
12 -10 22 -7 22 4 0 -3 13 -14 29 -12 16 -21 33 -21 39 0 5 -7 15 -15 22 -8 6
-13 15 -12 19 2 9 -65 111 -73 111 -3 0 -14 -17 -25 -37z"/>
<path d="M2680 946 c-11 -17 -24 -36 -29 -43 -6 -7 -11 -16 -11 -20 0 -17
-139 -143 -162 -147 -7 -1 -33 -13 -58 -26 -25 -12 -47 -22 -50 -22 -3 1 -20
-3 -39 -8 -19 -5 -39 -6 -44 -3 -6 4 -7 1 -2 -7 6 -10 4 -12 -8 -7 -10 4 -17
2 -17 -4 0 -15 80 -7 185 18 17 4 32 7 35 8 25 5 80 31 80 38 0 4 4 6 9 3 5
-4 33 13 63 36 29 23 47 34 39 25 -7 -9 -11 -17 -8 -17 6 0 82 101 82 110 1 3
6 14 12 26 9 15 9 26 0 45 -18 36 -55 34 -77 -5z"/>
<path d="M1748 665 c-3 -3 -20 -7 -39 -10 -55 -8 -90 -16 -159 -36 -25 -7 -49
-13 -55 -14 -5 -1 -19 -5 -30 -9 -43 -17 -80 -31 -85 -32 -3 0 -18 -7 -35 -14
-16 -7 -32 -14 -35 -15 -44 -15 -109 -53 -103 -59 4 -5 3 -6 -3 -3 -6 4 -30
-7 -53 -23 -22 -17 -41 -27 -41 -23 -1 5 -10 -3 -21 -17 -12 -14 -23 -24 -26
-22 -2 2 -23 -11 -46 -30 -101 -81 -216 -188 -203 -188 4 0 -3 -10 -15 -22
-22 -24 -38 -57 -45 -95 -8 -40 50 -53 105 -23 12 6 21 8 21 5 0 -3 23 11 50
30 28 19 50 32 50 29 0 -3 9 4 20 17 10 13 19 21 20 16 0 -4 34 18 77 49 42
32 73 52 68 45 -4 -7 21 8 55 33 34 25 68 46 76 46 7 0 17 7 22 16 5 9 12 16
15 15 4 0 22 9 41 20 20 11 36 19 38 17 2 -1 17 7 34 19 17 12 37 23 45 25 8
2 16 5 19 8 13 13 150 72 150 65 0 -3 16 4 36 15 19 11 32 16 29 9 -4 -6 6 -4
21 4 77 39 309 63 409 42 17 -3 44 -8 60 -11 50 -9 109 -25 130 -37 11 -6 26
-12 33 -13 8 -1 22 -10 33 -20 10 -9 19 -14 19 -10 0 4 15 -4 33 -18 19 -15
38 -26 43 -26 6 0 34 -28 64 -61 30 -34 64 -70 75 -81 24 -23 68 -20 73 4 4
20 -86 121 -99 112 -5 -3 -9 2 -9 10 0 9 -6 16 -13 16 -8 0 -22 9 -32 20 -10
11 -22 20 -27 20 -10 0 -70 40 -79 53 -3 5 -9 8 -13 8 -3 -1 -30 11 -59 26
-28 15 -56 28 -62 29 -5 1 -35 11 -65 22 -64 24 -156 48 -220 57 -70 11 -226
13 -241 4 -7 -4 -20 -4 -30 1 -9 5 -18 7 -21 5z"/>
</g>
</svg>
